<svg xmlns="http://www.w3.org/2000/svg" viewBox="0 0 54 54"><path fill-rule="evenodd" clip-rule="evenodd" fill="var(--fill, #000)" d="M4.265 25.989v-.352c.044-.528.044-.264.132-.044a3.1 3.1 0 003.474 2.506c-1.1-.528-1.671-1.627-2.638-2.418a4.324 4.324 0 01-.923-.88c-.132-.308.132-.923.22-1.275-.008-.135.007-.27.044-.4.088-.66.088-.264.088.044a3.1 3.1 0 003.21 2.858c-1.143-.616-2.023-2.2-2.858-3.254-.44-.528.132-3.034.176-1.8a3.105 3.105 0 002.638 2.946c.22 0-.528-.835-.792-1.363-.528-1.1-1.891-2.067-1.451-3.3.176-.528.484-1.54.44-.967-.088 1.495.4 2.946 1.76 3.474.219.088.922.4.571.044a5.8 5.8 0 01-1.055-2.155c-.352-.7-1.187-1.54-.923-2.243.166-.465.388-.908.66-1.32.132-.307-.088.837-.044 1.232a3.1 3.1 0 001.407 2.287c.132.088 1.011.528.748.22a4.676 4.676 0 01-.879-2.155c-.22-.572-.528-1.1-.748-1.715-.044-.088-.22-.352-.176-.4.044-.352.44-.748.616-1.011a.919.919 0 01.176-.264c.484-.792.088.176.044.616-.038.48.037.961.22 1.407a2.612 2.612 0 001.011 1.363c.22.132.836.572.572.176-.572-.791-.528-2.067-.88-3.034-.043-.22-.483-1.011-.399-1.32a4.826 4.826 0 011.275-1.582c.088-.088-.088.132-.088.264a2.626 2.626 0 00-.264.484 3.477 3.477 0 00.484 2.814c.22.264 1.1.924.967.7a1.542 1.542 0 01-.264-.616c-.22-.968-.176-2.067-.352-2.946-.132-.528-.352-.88.044-1.276.352-.4 1.583-1.67.923-.615-.374.637-.47 1.4-.264 2.11.084.431.265.837.528 1.187.132.132.7.66.7.528a26.636 26.636 0 01-.176-2.726c-.088-.527-.4-1.759 0-2.11.424-.39.88-.743 1.363-1.056.088-.043-.088.132-.176.22-.053.116-.128.22-.22.308-.208.332-.33.71-.352 1.1a2.876 2.876 0 00.923 2.726c.176.132-.044-.528-.044-.923.044-.484.176-.835.22-1.319-.03-.748-.015-1.496.044-2.243.044-.4.66-.615.879-.748.255-.232.554-.411.879-.528.132-.088-.132.176-.264.308a2.91 2.91 0 00-.66.967c-.338.85-.322 1.8.044 2.64.044.087.572.922.528.527-.22-1.275.4-2.55.572-3.826.044-.176.044-.7.176-.835a8.666 8.666 0 011.1-.528c1.1-.528-.484.7-.7 1.847a3.352 3.352 0 00.132 1.5c.044.132.44.792.484.7.088-.352 0-.748.088-1.1.352-1.01.66-2.067 1.011-3.166.176-.7 1.319-.528 1.891-.923-1.1.88-1.935 2.067-1.451 3.606 0 .132.308.923.308.572 0-1.1.792-1.847 1.1-2.814.22-.615.264-1.407.879-1.67.49-.18.991-.326 1.5-.44.088 0 .132.043 0 .176a2.51 2.51 0 00-.308.176 3.257 3.257 0 00-1.407 1.759 2.338 2.338 0 00-.132 1.45c.044.177.176.793.264.66.065-.215.11-.436.132-.66.264-.615.836-1.142 1.1-1.714.135-.224.253-.458.352-.7a1.7 1.7 0 011.539-1.275c.352-.044.748-.352 1.011-.132.088.088-.088.088-.22.088-.185.086-.362.189-.528.308a2.648 2.648 0 00-1.1 1.1 3.065 3.065 0 00-.44 1.67c0 .22.132.836.22.749.22-.264.22-.7.44-1.011.7-.88 1.319-1.76 1.935-2.638.264-.4 1.011-.4 1.671-.352.22 0 .44.044.572.044a4.936 4.936 0 00-.572.22 3.131 3.131 0 00-2.111 2.2c-.044.176-.22 1.187 0 1.319.132.088.088-.264.132-.352a3.94 3.94 0 01.66-.835c.484-.484.879-.923 1.319-1.407.22-.264.484-.616.748-.88.352-.351 1.1-.263 1.759-.131.132 0 .352.044.44.044-.132.044-.308.088-.44.132a3.5 3.5 0 00-1.935 1.188 2.916 2.916 0 00-.572 1.363v.572c0 .132.044.176.132 0 .308-.7 1.011-1.011 1.539-1.451.264-.22.528-.572.836-.88.4-.44.879-.88 1.363-.791.132 0 .22.044.352.044.415.081.826.184 1.231.307a5.546 5.546 0 00-1.231.177 2.816 2.816 0 00-1.715 1.318 2.092 2.092 0 00-.352.792c-.088.22-.22.968.044.572.09-.128.193-.246.308-.353.44-.44 1.1-.66 1.627-1.1.044 0 .044 0 .088-.043.572-.484 1.319-1.363 1.979-1.187.528.132 1.011.352 1.539.527a3.117 3.117 0 00-3.166 1.495c-.154.214-.272.45-.352.7-.088.22-.176.484-.088.528.044.044.044.044.088-.044.044 0 .088-.176.132-.22.132-.131.264-.22.4-.352.528-.308 1.1-.528 1.627-.835.528-.264 1.407-1.142 1.935-1.1.623.173 1.216.44 1.759.792a3.38 3.38 0 00-3.43 1.056c-.132.176-.7 1.01-.528 1.23.044.088.132-.131.22-.22.128-.127.277-.23.44-.307.484-.265 1.143-.4 1.671-.616.572-.264 1.451-.967 2.067-.923.606.21 1.17.522 1.671.923a3.45 3.45 0 00-3.474.792c-.132.132-.748.968-.66 1.142.044.089.176-.131.264-.176.132-.088.308-.22.44-.308.572-.22 1.231-.22 1.759-.44.67-.285 1.361-.519 2.067-.7.44-.043 1.319.924 1.671 1.188-1.539-.528-3.43-.528-4.265 1.1.666-.031 1.328-.12 1.979-.264 1.231-.132 2.243-.88 3.21-.044.286.301.595.58.923.836a3.533 3.533 0 00-3.606-.044c-.264.176-1.1 1.056-.7.88.679-.23 1.4-.305 2.111-.22 1.1-.088 2.2-.615 2.946.22.264.308.572.66.836.968a3.593 3.593 0 00-3.518-.4c-.264.176-1.187.967-.748.835a7.44 7.44 0 012.42 0c1.934.044 2.33-.132 3.341 1.627-.967-.748-2.2-1.451-3.518-.88-.176.045-1.1.529-1.1.749 0 .088.22-.088.308-.088.175-.022.353-.022.528 0 .611.05 1.215.167 1.8.352.66.088 1.891-.088 2.287.44.351.463.646.967.88 1.5a3.372 3.372 0 00-3.387-1.187c-.22.088-1.1.4-1.143.66-.044.088.176-.044.308-.044.177-.03.358-.015.528.044.6.129 1.187.306 1.759.528.572.132 1.847.132 2.2.616.29.495.513 1.027.66 1.583-.879-.88-1.67-1.671-3.122-1.407-.22 0-1.187.22-1.23.484 0 .088.219 0 .307 0 .176 0 .352.044.528.044.616.176 1.1.572 1.671.748.572.22 1.759.264 2.067.79a5.84 5.84 0 01.528 1.76c-.967-1.54-2.419-2.331-4.265-1.54a6.06 6.06 0 012.419 1.1c.528.309 1.715.529 2.023 1.012.195.58.298 1.187.308 1.8a3.178 3.178 0 00-4.075-1.897l-.015.006a5.991 5.991 0 012.287 1.319c.484.308 1.627.66 1.891 1.143.155.647.2 1.316.132 1.979-.616-1.715-1.847-2.858-3.87-2.463.923.308 1.363.968 2.155 1.539.484.44 1.451.835 1.759 1.407.22.352-.088 1.45-.088 1.89a3.2 3.2 0 00-3.606-2.725 6.802 6.802 0 011.979 1.759c.559.464 1.088.963 1.583 1.495.088.132-.044.308-.088.44-.044.528-.132 1.01-.22 1.539a3.172 3.172 0 00-3.21-3.21c1.011.616 1.451 1.8 2.331 2.725.44.44.792.7.7 1.32-.044.483-.264 1.01-.352 1.538-.22-1.935-.967-3.21-2.99-3.474 1.143.88 1.759 2.374 2.55 3.518.44.7-.132 1.583-.44 2.331.132-1.935-.572-3.474-2.507-3.87 1.055.923 1.5 2.594 2.11 3.782.401.747-.263 1.54-.659 2.2.264-1.89-.308-3.386-2.111-4a16.049 16.049 0 011.671 4c.264.747-.44 1.451-.923 2.067.484-1.847.176-3.342-1.583-4.265.391.814.629 1.694.7 2.594.132.616.748 1.671.44 2.243a4.98 4.98 0 01-1.055 1.32c.616-1.76.484-3.255-1.187-4.266.616 1.055.616 2.946.792 4.221.088.792-.748 1.275-1.275 1.76.66-1.628.792-3.167-.792-4.355.4 1.143.22 2.858.352 4.134.044.967-.879 1.32-1.539 1.847 1.011-1.45 1.231-3.21-.176-4.529a6.706 6.706 0 01-.176 2.638 7.266 7.266 0 01-.088 2.2c-.264.44-1.187.748-1.627 1.011 1.143-1.407 1.5-2.99.308-4.485a6.323 6.323 0 01-.44 2.594c-.06.724-.162 1.444-.308 2.155-.044.132-.22.088-.352.176-.484.22-.967.44-1.407.66 1.275-1.275 1.847-2.814.7-4.44.132 1.45-.7 2.9-1.055 4.221-.22.88-1.319.747-2.067 1.143 1.539-1.055 2.287-2.594 1.363-4.4 0 1.055-.66 1.715-1.011 2.594-.176.484-.352.967-.572 1.451-.308.748-1.319.792-2.067.924 1.5-.968 2.375-2.287 1.715-4.178-.22 1.275-1.275 2.551-1.891 3.65-.044.088-.044.132-.088.22-.308.528-.967.572-1.627.616-.22 0-.4.044-.528.044.176-.088.308-.176.528-.264a3.149 3.149 0 001.539-3.738 9.627 9.627 0 01-1.539 2.463c-.17.171-.318.363-.44.572-.22.44-.4.88-.879.967-.394.051-.79.08-1.187.088a2.147 2.147 0 01-.528-.044c.183-.054.36-.128.528-.22a3.063 3.063 0 002.067-3.474 8.232 8.232 0 01-1.715 2.023c-.132.132-.22.308-.352.44-.66.792-.836 1.275-2.331 1.143-.22 0-.4-.088-.616-.088a3.188 3.188 0 002.858-3.43c-.352.791-1.011 1.1-1.671 1.671-.572.572-1.319 1.759-2.155 1.627-.22-.044-.44-.088-.616-.132a5.127 5.127 0 01-.879-.22 6.05 6.05 0 00.879-.132 3.026 3.026 0 002.463-2.9 6.662 6.662 0 01-2.111 1.583 2.5 2.5 0 01-.352.308c-.484.44-1.055 1.056-1.5 1.011a5.366 5.366 0 01-1.67-.572 3.311 3.311 0 003.165-1.627c.16-.348.264-.72.308-1.1-.088.132-.22.22-.308.352-.836.7-1.8.967-2.682 1.627-.308.22-.792.572-1.143.528a3.724 3.724 0 01-1.231-.528.465.465 0 01-.22-.088c-.4-.176-.176-.088.044-.088a3.182 3.182 0 003.65-2.33c-.879.88-2.2 1.011-3.254 1.539-.355.256-.76.435-1.187.528a3.837 3.837 0 01-1.055-.66c-.132 0-.176-.088-.264-.088-.352-.22-.264-.22-.088-.132a3.2 3.2 0 003.87-1.935c-1.011.7-2.331.748-3.386 1.187a2.732 2.732 0 01-1.143.4c-.308-.044-.748-.528-1.055-.747-.088-.088-.176-.132-.264-.22-.528-.4-.22-.22.044-.088a3.136 3.136 0 004.046-1.539c-.836.572-1.759.44-2.726.66-.52.107-1.033.241-1.539.4-.66.132-2.463-1.583-1.5-1.055a3.141 3.141 0 004-1.143c-1.1.484-2.9.4-4.134.528-.484.088-.528.088-.879-.22a10.492 10.492 0 01-.967-1.01c-.088-.133-.132-.22 0-.133a3.181 3.181 0 004.4-.572 14.64 14.64 0 01-4.178.132c-.836.044-1.407-.836-1.715-1.539-.088-.176.044.044.132.044a3.16 3.16 0 004.4.044c-1.2.017-2.396-.117-3.562-.4a1.979 1.979 0 01-1.363-.308c-.044-.088-1.319-1.979-.616-1.319a3.186 3.186 0 004.265.352c-1.231.176-2.331-.528-3.518-.748-.44-.044-1.011-.088-1.231-.44-.132-.132-.967-1.979-.572-1.407a3.227 3.227 0 004.265.792c-1.319 0-2.243-.792-3.43-1.1-.4-.088-1.011-.176-1.187-.484-.176-.22-.967-2.419-.352-1.539a3.14 3.14 0 004.09 1.32c-1.275-.22-2.155-1.012-3.254-1.5-.352-.133-1.011-.353-1.187-.66a6.578 6.578 0 01-.264-1.276v-.308c-.088-.44 0-.176.044 0a3.216 3.216 0 004 1.715c-1.187-.308-2.067-1.275-3.122-1.8-.308-.132-.923-.4-1.055-.7a4.346 4.346 0 01-.132-1.319v-.308c-.044-.528.044-.22.132.044a3.085 3.085 0 003.738 2.067c-1.187-.4-1.935-1.407-2.9-2.11a3.667 3.667 0 01-1.011-.836c-.175-.317 0-.889.044-1.24zm-.176-.4c-.044.44.044 1.319-.22 1.671-.528.748-1.231 1.407-1.715 2.155-.572.66-.792 1.5-1.539 1.979-.44.308.967.044 1.275-.132a4.684 4.684 0 001.671-1.539c.2-.286.322-.62.352-.968.044-.132.044-.264.088-.44 0-.044 0-.264.044-.22.132.088.044 1.187.044 1.407.088.22-.308.748-.484.968a13.469 13.469 0 00-1.5 2.506 3.187 3.187 0 01-.528 1.011c-.132.088-.528.352-.572.484s.22-.044.352-.044a3.549 3.549 0 002.507-1.89c.218-.413.367-.859.44-1.32v-.4c0-.132-.088-.4-.044-.308.044.308.4 1.187.264 1.5-.13.402-.305.787-.524 1.147a14.23 14.23 0 00-1.187 2.638 2.408 2.408 0 01-.748 1.23c-.176.22.836-.175 1.1-.307a3.587 3.587 0 001.671-2.858c0-.132-.132-.7-.044-.835s.088.308.132.484c.047.24.12.476.22.7.176.528-.352 1.319-.572 1.8a17.299 17.299 0 01-1.363 3.65 4.859 4.859 0 001.055-.44 3.763 3.763 0 001.5-2.814c0-.308-.22-.7-.132-.968 0-.132.044.176.088.308a2.7 2.7 0 00.22.528c.264.528.044 1.011-.088 1.627-.308 1.055-.308 2.55-.7 3.606-.088.264-.616.88-.22.7a3.623 3.623 0 001.8-4.178c-.308-.923.616.792.572 1.275-.132.879-.352 1.715-.44 2.638a5.559 5.559 0 01-.264 2.419c-.264.528.264 0 .4-.132a3.5 3.5 0 001.275-2.506 3.1 3.1 0 00-.176-1.32c-.044-.22-.352-.747-.176-.527.302.321.567.675.792 1.055.132.132 0 .616 0 .792-.044 1.23.088 2.55 0 3.738.017.296-.013.592-.088.879-.044.088-.22.308-.132.264.967-.088 1.451-2.067 1.5-2.77s-.616-2.067-.4-1.847c1.231 1.143.66 3.122 1.143 4.617.169.433.23.901.176 1.363 0 .176-.176.747-.044.572.088-.132.22-.22.308-.352a3.766 3.766 0 00.308-4 .955.955 0 00-.22-.352c-.088-.088-.308-.352-.22-.264a2.4 2.4 0 011.187 1.539c.22.88.308 1.8.528 2.594.221.522.384 1.068.484 1.627 0 .176-.132.792-.044.88.044.132.132-.22.22-.308a1.04 1.04 0 00.264-.4c.404-.852.482-1.821.22-2.726a2.808 2.808 0 00-.7-1.275c-.132-.132-.484-.4-.308-.352.748.044 1.363 1.187 1.539 1.8.22.748.4 1.539.66 2.287a4.76 4.76 0 01.616 1.979c0 .7.616-.792.66-1.231a3.844 3.844 0 00-.44-2.331c-.176-.308-1.187-1.187-.748-.967a2.218 2.218 0 011.319 1.187c.528 1.23 1.275 2.418 1.759 3.65.1.18.173.372.22.572 0 .132 0 .572.088.528 1.055-1.011.088-3.386-.528-4.134a2.692 2.692 0 00-.748-.66.043.043 0 01-.044-.042v-.002c.66.308 1.187.44 1.583 1.1.616 1.055 1.143 2.023 1.847 3.034.235.302.414.645.528 1.01.044.133 0 .485.088.44.282-.508.39-1.095.308-1.67a3.85 3.85 0 00-1.187-2.42 7.02 7.02 0 01-.967-.571c0-.044.132 0 .176.044.14.023.274.068.4.132.7.264.879.264 1.319.879.356.502.738.986 1.143 1.45.44.529.879 1.056 1.275 1.584.176.264.528 1.01.528.923a3.69 3.69 0 00-1.76-4.046h-.043a1.355 1.355 0 00-.44-.22c-.044-.044-.132-.044-.22-.088.264.044.44.088.66.132 1.143.308 1.45 1.1 2.463 2.067A10.045 10.045 0 0127 53.868c0 .044.044.088.088.132A3.046 3.046 0 0027 52.329a3.97 3.97 0 00-1.1-1.671c-.231-.22-.5-.4-.792-.528-.308-.132-1.011-.352-.66-.264.494-.042.991.034 1.451.22.409.29.779.63 1.1 1.014a6.8 6.8 0 00.573.528c.572.484 1.23.791 1.759 1.319.088 0 .088.044.176.132.22.308.572.792.572.616a2.847 2.847 0 00-.088-.88 3.324 3.324 0 00-.484-1.143 3.81 3.81 0 00-2.331-1.583c-.044-.044-.132-.044-.176-.088-.176 0-.132-.044 0-.044a3.545 3.545 0 011.539.22c.308.22.66.484.967.7.392.317.803.611 1.231.879.155.112.316.215.484.308.573.255 1.084.63 1.5 1.1.352.484.088-.264.088-.528a2.778 2.778 0 00-1.583-2.111 5.037 5.037 0 00-1.715-.616c-.088 0-.088-.044-.176-.044h.176c.581-.07 1.17.006 1.715.22.923.352 1.67.968 2.77 1.363.442.133.859.342 1.231.616.088.088.484.484.528.44.044-.088-.088-.352-.088-.44a3.78 3.78 0 00-3.958-2.551 2.74 2.74 0 011.759-.22c.986.515 2.016.941 3.078 1.275.453.075.886.24 1.275.484.132.088.528.484.572.4a1.675 1.675 0 00-.132-.44c-.616-1.67-2.375-2.287-4.134-2.155a2.683 2.683 0 011.715-.4c1.025.414 2.084.738 3.166.967.442.044.873.163 1.275.352.198.13.404.247.616.352a.781.781 0 00-.176-.44c-.792-1.627-2.55-2.067-4.309-1.759.418-.249.86-.455 1.319-.616.9.053 1.787.23 2.638.528.859.044 1.712.161 2.55.352.572.264.572.176.176-.264a3.671 3.671 0 00-4.573-1.055c.308-.176 1.011-.792 1.363-.792 1.231 0 2.463.44 3.782.22.7-.088 2.155.484 1.715-.044-1.275-1.5-3.034-1.5-4.75-.792.353-.264.7-.484 1.056-.792.176-.132.176-.308.4-.308.967-.132 2.067.044 3.034-.132a6.044 6.044 0 012.507-.132c.4.132.176 0 0-.22-1.32-1.5-3.65-1.01-5.057 0 .308-.308.616-.528.879-.836.088-.132.308-.44.308-.264 0-.264.484-.22.7-.264.484-.044.923-.088 1.45-.132a22.552 22.552 0 012.9-.572c.22-.044.793.044.793 0-.176-.528-1.451-.88-1.935-.967a4.215 4.215 0 00-3.254 1.187c.276-.458.6-.886.967-1.275a8.3 8.3 0 012.111-.572c.967-.22 1.847-.748 2.858-.923a1.23 1.23 0 01.44-.044c.088 0 .352.088.308 0-.22-.484-1.539-.748-2.067-.7a4.272 4.272 0 00-3.3 1.8c.301-.564.639-1.107 1.01-1.627.617-.572 1.936-.66 2.727-.967.967-.44 1.627-1.1 2.814-1.1-1.847-1.1-3.826-.308-5.057 1.32.18-.508.414-.995.7-1.452.528-.66 1.847-.835 2.594-1.275a6.42 6.42 0 012.638-1.275 3.7 3.7 0 00-4.881 1.671c.13-.485.307-.956.528-1.407.463-.44.998-.797 1.583-1.055 1.143-.66 2.023-1.847 3.386-2.155a3.745 3.745 0 00-4.705 2.375 7.459 7.459 0 01.44-1.627c.4-.7 1.583-1.143 2.2-1.759a6.812 6.812 0 012.287-1.8 3.578 3.578 0 00-3.914 1.627c-.173.34-.32.693-.44 1.055.044-.484.132-1.01.22-1.495.088-.616 1.45-1.45 1.847-1.89.792-.88 1.231-1.76 2.287-2.332a3.7 3.7 0 00-4.09 3.386c.044-.528.088-1.01.088-1.583 0-.7 1.187-1.539 1.627-2.11a7.95 7.95 0 012.023-2.508 3.661 3.661 0 00-3.518 2.463c-.132.352-.088.792-.22 1.143 0-.484-.22-1.363.044-1.759.4-.7.879-1.319 1.275-1.979.572-.967.792-1.979 1.715-2.77-2.155.264-3.254 1.98-3.254 4.178a5.632 5.632 0 01-.176-1.89c.264-.7.7-1.364 1.055-2.112.528-1.01.572-2.067 1.5-2.858a3.692 3.692 0 00-2.946 3.122c-.008.382.006.763.044 1.143-.132-.44-.264-.923-.4-1.363a7.66 7.66 0 01.836-2.506c.4-1.1.4-2.155 1.1-3.122a3.791 3.791 0 00-2.243 4.793c-.22-.616-.748-1.319-.572-1.979.352-1.5.528-3.87 1.319-5.233a3.665 3.665 0 00-1.935 4.529c.22.66-.176-.264-.308-.484a2.433 2.433 0 01-.176-1.847c.264-1.407.088-3.254.66-4.485a3.851 3.851 0 00-1.407 4.837c-.264-.352-.528-.748-.792-1.1h.044c-.22-.132-.088-1.1-.088-1.407.088-1.5-.352-3.166.132-4.485a3.773 3.773 0 00-.7 5.145 6.798 6.798 0 01-1.055-1.187c-.352-.7-.132-2.023-.22-2.858a8.205 8.205 0 01-.264-2.946 3.664 3.664 0 00-.132 5.145 5.513 5.513 0 01-1.187-1.055c-.44-.66-.308-1.979-.528-2.77a7.102 7.102 0 01-.528-2.9 3.66 3.66 0 00.308 5.1c-.264-.22-1.143-.66-1.231-.923-.308-.748-.44-1.627-.748-2.419a7.274 7.274 0 01-1.011-3.122c-1.275 1.715-.528 3.914 1.055 5.145-.4-.264-1.32-.572-1.54-1.01-.351-.7-.571-1.496-.922-2.2a10.07 10.07 0 01-1.275-2.99 3.745 3.745 0 001.407 4.924c-.44-.176-.88-.4-1.32-.572-.4 0-1.1-2.023-1.274-2.243-.572-1.01-1.363-1.627-1.583-2.814-.836 1.847.22 3.65 1.759 4.661-.572-.22-1.187-.264-1.583-.748a24.105 24.105 0 00-1.539-2.155c-.044-.044-.088-.132-.176-.176A5.27 5.27 0 0129.639.175c-.086.21-.13.434-.132.66-.044.248-.044.5 0 .748a3.884 3.884 0 001.715 2.594c.264.132.528.308.836.44-.268-.1-.55-.16-.836-.176a3.44 3.44 0 00-.616-.088c-.264 0-.88-.923-1.1-1.23-.044-.045-.088-.089-.088-.133-.748-.923-1.891-1.539-2.42-2.594a3.2 3.2 0 01-.22-.4 3.416 3.416 0 00.22 2.023 4.322 4.322 0 002.42 2.155A2.87 2.87 0 0127 3.122c-.22-.22-.484-.484-.748-.791-.88-.748-1.847-1.056-2.42-2.111A3.689 3.689 0 0027 4.046a5.611 5.611 0 00-.836.044h-.528c-.352-.044-.792-.528-1.011-.7-.7-.484-1.451-.923-2.155-1.407a5.907 5.907 0 01-1.5-1.275 3.931 3.931 0 001.5 2.726c.602.42 1.296.691 2.023.792a7.266 7.266 0 01-1.32.176 2.3 2.3 0 01-.7-.264c-.615-.308-1.274-.88-1.8-1.143a8.682 8.682 0 01-2.55-1.451c.22 2.023 1.98 2.99 4 3.034-.483.132-.922.264-1.362.352-.528.132-1.847-.836-2.331-1.056-1.055-.484-2.067-.484-2.99-1.319a3.866 3.866 0 002.814 2.682c.4.132.792-.044 1.23.044.485 0-.4.176-.571.264a1.9 1.9 0 01-1.54-.132c-1.362-.4-3.341-.572-4.572-1.363a3.767 3.767 0 003.078 2.287c.484.044.879-.176 1.363-.176.528 0-.44.264-.616.352a1.765 1.765 0 01-1.5.088c-1.363-.264-3.43-.264-4.661-.923.471.98 1.39 1.67 2.463 1.847.565.14 1.157.124 1.715-.044.123-.07.259-.115.4-.132.044 0 .22-.132.176-.044-.044.176-.264.176-.44.264-1.1.66-1.891.352-3.3.264-1.187-.088-2.2.176-3.21-.308a3.507 3.507 0 002.682 1.627c.748.088 2.463-.66 1.89-.22-.307.22-.615.616-1.01.66-.748.088-1.583 0-2.375.088a9.054 9.054 0 01-3.254.088 3.76 3.76 0 004.793.7c.079-.083.167-.157.264-.22.176-.043-.132.176-.176.176l-.66.66c-.4.44-1.363.4-1.935.44-1.407.176-2.638.837-4 .528a3.593 3.593 0 004.353.572c.308-.22.836-.66.572-.4-.132.132-.792 1.143-.792.967 0 .132-1.011.264-1.187.308-1.451.308-2.814 1.143-4.4 1.011a3.483 3.483 0 003.034.7 2.994 2.994 0 001.451-.7c.088-.088.308-.264.4-.352-.528.572-.484 1.011-1.231 1.32a18.66 18.66 0 00-2.594 1.01 4.6 4.6 0 01-2.287.792 3.732 3.732 0 003.826-.044c.352-.22.572-.616.923-.88.4-.308-.132.4-.22.616-.264.528-.572.66-1.143.967-1.32.616-2.726 1.8-4.265 2.023a3.6 3.6 0 003.738-.4c.4-.264.528-.66.879-.968.308-.264-.132.44-.176.66-.22.616-.528.748-1.055 1.1-1.231.748-2.594 2.155-4.046 2.594a3.857 3.857 0 003.738-.88c.28-.375.53-.772.748-1.187.352-.4-.044.484-.088.7a1.7 1.7 0 01-.923 1.187c-1.143.923-2.375 2.418-3.738 2.946 1.33.331 2.732-.13 3.606-1.187a7.25 7.25 0 00.616-1.143c.308-.44 0 .44 0 .66a2.162 2.162 0 01-.792 1.32c-1.1 1.1-2.067 2.637-3.386 3.385a3.759 3.759 0 003.738-2.11c.085-.198.144-.405.176-.617.044-.176.132-.66.132-.44"/></svg>